<svg width="19" height="19" viewBox="0 0 19 19" fill="none" xmlns="http://www.w3.org/2000/svg">
<path d="M5.28223 18.1792C5.04427 18.1792 4.86165 18.1017 4.73438 17.9468C4.6071 17.7918 4.54346 17.5843 4.54346 17.3242V14.9087H4.15332C3.32878 14.9087 2.63428 14.762 2.06982 14.4688C1.50537 14.1755 1.0765 13.7466 0.783203 13.1821C0.495443 12.6177 0.351562 11.9287 0.351562 11.1152V4.75684C0.351562 3.94336 0.495443 3.25439 0.783203 2.68994C1.0765 2.12549 1.50537 1.69661 2.06982 1.40332C2.63428 1.10449 3.32878 0.955078 4.15332 0.955078H14.8447C15.6693 0.955078 16.3638 1.10449 16.9282 1.40332C17.4927 1.69661 17.9188 2.12549 18.2065 2.68994C18.4998 3.25439 18.6465 3.94336 18.6465 4.75684V11.1152C18.6465 11.9287 18.4998 12.6177 18.2065 13.1821C17.9188 13.7466 17.4927 14.1755 16.9282 14.4688C16.3638 14.762 15.6693 14.9087 14.8447 14.9087H9.2334L6.23682 17.6479C6.0376 17.8306 5.86882 17.9634 5.73047 18.0464C5.59766 18.1349 5.44824 18.1792 5.28223 18.1792ZM4.09521 8.86572H7.61475C7.75309 8.86572 7.8693 8.81868 7.96338 8.72461C8.05745 8.625 8.10449 8.50602 8.10449 8.36768C8.10449 8.23486 8.05745 8.11865 7.96338 8.01904C7.8693 7.91943 7.75309 7.86963 7.61475 7.86963H4.09521C3.95687 7.86963 3.83789 7.91943 3.73828 8.01904C3.64421 8.11865 3.59717 8.23486 3.59717 8.36768C3.59717 8.50602 3.64421 8.625 3.73828 8.72461C3.83789 8.81868 3.95687 8.86572 4.09521 8.86572ZM9.37451 8.86572H14.9111C15.0495 8.86572 15.1657 8.81868 15.2598 8.72461C15.3594 8.625 15.4092 8.50602 15.4092 8.36768C15.4092 8.23486 15.3594 8.11865 15.2598 8.01904C15.1657 7.91943 15.0495 7.86963 14.9111 7.86963H9.37451C9.2417 7.86963 9.12549 7.91943 9.02588 8.01904C8.9318 8.11865 8.88477 8.23486 8.88477 8.36768C8.88477 8.50602 8.9318 8.625 9.02588 8.72461C9.12549 8.81868 9.2417 8.86572 9.37451 8.86572ZM4.09521 11.1069H5.53955C5.6779 11.1069 5.79411 11.0599 5.88818 10.9658C5.98779 10.8717 6.0376 10.7555 6.0376 10.6172C6.0376 10.4733 5.98779 10.3543 5.88818 10.2603C5.79411 10.1606 5.6779 10.1108 5.53955 10.1108H4.09521C3.95687 10.1108 3.83789 10.1606 3.73828 10.2603C3.64421 10.3543 3.59717 10.4733 3.59717 10.6172C3.59717 10.7555 3.64421 10.8717 3.73828 10.9658C3.83789 11.0599 3.95687 11.1069 4.09521 11.1069ZM7.30762 11.1069H11.5991C11.7375 11.1069 11.8537 11.0599 11.9478 10.9658C12.0474 10.8717 12.0972 10.7555 12.0972 10.6172C12.0972 10.4733 12.0474 10.3543 11.9478 10.2603C11.8537 10.1606 11.7375 10.1108 11.5991 10.1108H7.30762C7.16927 10.1108 7.05029 10.1606 6.95068 10.2603C6.85661 10.3543 6.80957 10.4733 6.80957 10.6172C6.80957 10.7555 6.85661 10.8717 6.95068 10.9658C7.05029 11.0599 7.16927 11.1069 7.30762 11.1069ZM13.3672 11.1069H14.9111C15.0495 11.1069 15.1657 11.0599 15.2598 10.9658C15.3594 10.8717 15.4092 10.7555 15.4092 10.6172C15.4092 10.4733 15.3594 10.3543 15.2598 10.2603C15.1657 10.1606 15.0495 10.1108 14.9111 10.1108H13.3672C13.2288 10.1108 13.1099 10.1606 13.0103 10.2603C12.9162 10.3543 12.8691 10.4733 12.8691 10.6172C12.8691 10.7555 12.9162 10.8717 13.0103 10.9658C13.1099 11.0599 13.2288 11.1069 13.3672 11.1069Z" fill="#BFBFBF"/>
</svg>
