<svg width="16" height="16" viewBox="0 0 16 16" fill="none" xmlns="http://www.w3.org/2000/svg">
<g clip-path="url(#clip0_101_10)">
<path d="M8 16C12.4183 16 16 12.4183 16 8C16 3.58172 12.4183 0 8 0C3.58172 0 0 3.58172 0 8C0 12.4183 3.58172 16 8 16Z" fill="white"/>
<path d="M7.99669 15C7.03818 15 6.13709 14.8166 5.29342 14.4498C4.44976 14.0874 3.70547 13.5836 3.06058 12.9384C2.41568 12.2977 1.90992 11.5552 1.5433 10.7112C1.1811 9.86711 1 8.96338 1 8C1 7.04104 1.1811 6.13952 1.5433 5.29545C1.90992 4.45139 2.41347 3.70676 3.05395 3.06155C3.69885 2.41635 4.44313 1.91256 5.2868 1.55019C6.13488 1.1834 7.03818 1 7.99669 1C8.9552 1 9.85629 1.1834 10.7 1.55019C11.548 1.91256 12.2923 2.41635 12.9328 3.06155C13.5777 3.70676 14.0835 4.45139 14.4501 5.29545C14.8167 6.13952 15 7.04104 15 8C15 8.96338 14.8167 9.86711 14.4501 10.7112C14.0835 11.5552 13.5777 12.2977 12.9328 12.9384C12.2923 13.5836 11.5502 14.0874 10.7066 14.4498C9.86291 14.8166 8.95961 15 7.99669 15Z" fill="#1F93FF"/>
</g>
<defs>
<clipPath id="clip0_101_10">
<rect width="16" height="16" fill="white"/>
</clipPath>
</defs>
</svg>
