<svg width="16" height="16" viewBox="0 0 16 16" fill="none" xmlns="http://www.w3.org/2000/svg">
<circle cx="8" cy="8" r="8" fill="white"/>
<path d="M7.99669 15C7.03818 15 6.13709 14.8166 5.29342 14.4498C4.44976 14.0874 3.70547 13.5836 3.06058 12.9384C2.41568 12.2977 1.90992 11.5552 1.5433 10.7112C1.1811 9.86711 1 8.96338 1 8C1 7.04104 1.1811 6.13952 1.5433 5.29545C1.90992 4.45139 2.41347 3.70676 3.05395 3.06155C3.69885 2.41635 4.44313 1.91256 5.2868 1.55019C6.13488 1.1834 7.03818 1 7.99669 1C8.9552 1 9.85629 1.1834 10.7 1.55019C11.548 1.91256 12.2923 2.41635 12.9328 3.06155C13.5777 3.70676 14.0835 4.45139 14.4501 5.29545C14.8167 6.13952 15 7.04104 15 8C15 8.96338 14.8167 9.86711 14.4501 10.7112C14.0835 11.5552 13.5777 12.2977 12.9328 12.9384C12.2923 13.5836 11.5502 14.0874 10.7066 14.4498C9.86291 14.8166 8.95961 15 7.99669 15ZM5.51869 8.78883H10.4946C10.7242 8.78883 10.9142 8.71812 11.0644 8.5767C11.219 8.43087 11.2963 8.24306 11.2963 8.01326C11.2963 7.77904 11.2212 7.58902 11.071 7.44318C10.9252 7.29735 10.7331 7.22443 10.4946 7.22443H5.51869C5.28017 7.22443 5.08582 7.29735 4.93564 7.44318C4.78545 7.58902 4.71036 7.77904 4.71036 8.01326C4.71036 8.24306 4.78545 8.43087 4.93564 8.5767C5.09023 8.71812 5.28459 8.78883 5.51869 8.78883Z" fill="#FE5F58"/>
</svg>
