<svg width="15" height="20" viewBox="0 0 15 20" fill="none" xmlns="http://www.w3.org/2000/svg">
<path d="M2.72363 19.6523C1.85482 19.6523 1.20182 19.4365 0.764648 19.0049C0.333008 18.5788 0.117188 17.9368 0.117188 17.0791V7.66602C0.117188 6.80827 0.333008 6.16634 0.764648 5.74023C1.20182 5.30859 1.85482 5.09277 2.72363 5.09277H12.0703C12.9336 5.09277 13.5838 5.30859 14.021 5.74023C14.4582 6.16634 14.6768 6.80827 14.6768 7.66602V17.0791C14.6768 17.9313 14.4692 18.5732 14.0542 19.0049C13.6392 19.4365 13.0609 19.6523 12.3193 19.6523H2.72363ZM1.92676 3.75635C1.98763 3.38005 2.11768 3.09229 2.31689 2.89307C2.51611 2.68831 2.82324 2.58594 3.23828 2.58594H11.5474C11.9624 2.58594 12.2695 2.68831 12.4688 2.89307C12.668 3.09229 12.798 3.38005 12.8589 3.75635H1.92676ZM3.37109 1.45703C3.39323 1.10286 3.50391 0.83724 3.70312 0.660156C3.90788 0.477539 4.20117 0.38623 4.58301 0.38623H10.2026C10.5845 0.38623 10.875 0.477539 11.0742 0.660156C11.279 0.83724 11.3952 1.10286 11.4229 1.45703H3.37109ZM8.81641 9.01904C9.12077 9.01904 9.38086 8.91113 9.59668 8.69531C9.81803 8.47396 9.92871 8.20833 9.92871 7.89844C9.92871 7.59408 9.81803 7.33398 9.59668 7.11816C9.38086 6.89681 9.12077 6.78613 8.81641 6.78613C8.50651 6.78613 8.24365 6.89681 8.02783 7.11816C7.81201 7.33398 7.7041 7.59408 7.7041 7.89844C7.7041 8.20833 7.81201 8.47396 8.02783 8.69531C8.24365 8.91113 8.50651 9.01904 8.81641 9.01904ZM7.07324 13.46L9.02393 14.5557L7.77051 15.6348C7.63216 15.7565 7.55745 15.8838 7.54639 16.0166C7.54085 16.1549 7.57959 16.2712 7.6626 16.3652C7.74561 16.4593 7.85628 16.5091 7.99463 16.5146C8.13298 16.5257 8.27409 16.4731 8.41797 16.3569L10.1777 14.8462C10.2995 14.7466 10.3493 14.6082 10.3271 14.4312C10.3105 14.2541 10.2303 14.1157 10.0864 14.0161L8.17725 12.7627L8.55078 11.4429C8.57845 11.3488 8.63379 11.2962 8.7168 11.2852C8.80534 11.2686 8.87728 11.3018 8.93262 11.3848L9.49707 12.2065C9.56348 12.3006 9.65202 12.3643 9.7627 12.3975C9.87337 12.4307 9.98128 12.4224 10.0864 12.3726L11.7134 11.6504C11.8573 11.5895 11.9513 11.501 11.9956 11.3848C12.0454 11.2686 12.0399 11.144 11.979 11.0112C11.8462 10.7456 11.6276 10.6792 11.3232 10.812L10.0283 11.3765L9.15674 10.1562C8.92432 9.83529 8.65316 9.6084 8.34326 9.47559C8.0389 9.34277 7.6543 9.29574 7.18945 9.33447L5.38818 9.45898C5.08382 9.47559 4.90951 9.6416 4.86523 9.95703L4.62451 11.7832C4.60791 11.9437 4.63281 12.0737 4.69922 12.1733C4.77116 12.2729 4.88184 12.3311 5.03125 12.3477C5.32454 12.3809 5.49333 12.2287 5.5376 11.8911L5.75342 10.4136L6.47559 10.3638C6.55859 10.3527 6.62777 10.3748 6.68311 10.4302C6.73844 10.48 6.75505 10.5547 6.73291 10.6543L6.32617 12.1152C6.24316 12.403 6.23486 12.6299 6.30127 12.7959C6.37321 12.9619 6.48112 13.0947 6.625 13.1943C6.77441 13.2884 6.92383 13.377 7.07324 13.46ZM3.65332 17.876C3.75293 17.9535 3.86914 17.9922 4.00195 17.9922C4.13477 17.9922 4.26481 17.9285 4.39209 17.8013L6.05225 16.166C6.11865 16.0941 6.16569 16.0387 6.19336 16C6.22103 15.9613 6.25977 15.8893 6.30957 15.7842L6.99854 13.9829L6.84082 13.8916C6.6416 13.7865 6.47005 13.6785 6.32617 13.5679C6.18783 13.4572 6.07438 13.3465 5.98584 13.2358L5.37988 15.3857L3.66162 17.0957C3.52881 17.2285 3.46794 17.3696 3.479 17.519C3.49007 17.6685 3.54818 17.7874 3.65332 17.876Z" fill="#BFBFBF"/>
</svg>
