<svg width="18" height="18" viewBox="0 0 18 18" fill="none" xmlns="http://www.w3.org/2000/svg">
<path d="M4.60986 9.90332H8.94287C9.10889 9.90332 9.24723 9.84798 9.35791 9.7373C9.46859 9.62663 9.52393 9.48828 9.52393 9.32227V3.72754C9.52393 3.56706 9.46859 3.43148 9.35791 3.3208C9.24723 3.21012 9.10889 3.15479 8.94287 3.15479C8.78239 3.15479 8.64681 3.21012 8.53613 3.3208C8.42546 3.43148 8.37012 3.56706 8.37012 3.72754V8.74951H4.60986C4.44385 8.74951 4.3055 8.80485 4.19482 8.91553C4.08415 9.0262 4.02881 9.16178 4.02881 9.32227C4.02881 9.48828 4.08415 9.62663 4.19482 9.7373C4.3055 9.84798 4.44385 9.90332 4.60986 9.90332ZM8.95117 17.4736C7.7946 17.4736 6.70443 17.2523 5.68066 16.8096C4.66243 16.3669 3.76318 15.7554 2.98291 14.9751C2.20264 14.1948 1.59115 13.2956 1.14844 12.2773C0.705729 11.2536 0.484375 10.1634 0.484375 9.00684C0.484375 7.85026 0.705729 6.76286 1.14844 5.74463C1.59115 4.72087 2.19987 3.81885 2.97461 3.03857C3.75488 2.2583 4.65413 1.64681 5.67236 1.2041C6.69613 0.761393 7.7863 0.540039 8.94287 0.540039C10.0994 0.540039 11.1896 0.761393 12.2134 1.2041C13.2371 1.64681 14.1392 2.2583 14.9194 3.03857C15.6997 3.81885 16.3112 4.72087 16.7539 5.74463C17.1966 6.76286 17.418 7.85026 17.418 9.00684C17.418 10.1634 17.1966 11.2536 16.7539 12.2773C16.3112 13.2956 15.6997 14.1948 14.9194 14.9751C14.1392 15.7554 13.2371 16.3669 12.2134 16.8096C11.1951 17.2523 10.1077 17.4736 8.95117 17.4736Z" fill="#BFBFBF"/>
</svg>
