<svg width="24" height="16" viewBox="0 0 24 16" fill="none" xmlns="http://www.w3.org/2000/svg">
<path d="M9.14014 15.5605C8.91878 15.5605 8.7251 15.519 8.55908 15.436C8.3986 15.3586 8.23812 15.234 8.07764 15.0625L6.6748 13.5352H4.33398C3.80827 13.5352 3.39323 13.3885 3.08887 13.0952C2.79004 12.8019 2.64062 12.3952 2.64062 11.875V6.63721C2.64062 6.12256 2.79004 5.71859 3.08887 5.42529C3.39323 5.132 3.80827 4.98535 4.33398 4.98535H5.24707L6.6416 3.46631C6.80208 3.29476 6.9681 3.17025 7.13965 3.09277C7.31673 3.00977 7.50765 2.96826 7.7124 2.96826H14.1621C14.3669 2.96826 14.555 3.007 14.7266 3.08447C14.8981 3.15641 15.0641 3.28369 15.2246 3.46631L16.6191 4.98535H17.2749C17.8062 4.98535 18.2212 5.132 18.52 5.42529C18.8244 5.71859 18.9766 6.12256 18.9766 6.63721V8.04834C18.9766 8.08708 18.9959 8.10645 19.0347 8.10645H20.0225C20.0612 8.10645 20.0806 8.08708 20.0806 8.04834V7.27637C20.0806 6.80599 20.2244 6.43799 20.5122 6.17236C20.8055 5.9012 21.2067 5.76562 21.7158 5.76562H22.0728C22.5763 5.76562 22.972 5.9012 23.2598 6.17236C23.5531 6.43799 23.6997 6.80599 23.6997 7.27637V13.2695C23.6997 13.7399 23.5531 14.1079 23.2598 14.3735C22.972 14.6447 22.5763 14.7803 22.0728 14.7803H21.7158C21.2067 14.7803 20.8055 14.6447 20.5122 14.3735C20.2244 14.1024 20.0806 13.7344 20.0806 13.2695V12.3398C20.0806 12.3011 20.0612 12.2817 20.0225 12.2817H19.0347C18.9959 12.2817 18.9766 12.3011 18.9766 12.3398V13.8506C18.9766 14.3929 18.8216 14.8135 18.5117 15.1123C18.2018 15.4111 17.7729 15.5605 17.2251 15.5605H9.14014ZM0.78125 12.5474C0.604167 12.5474 0.449219 12.481 0.316406 12.3481C0.183594 12.2153 0.117188 12.0576 0.117188 11.875V6.64551C0.117188 6.46842 0.180827 6.31348 0.308105 6.18066C0.440918 6.04785 0.598633 5.98145 0.78125 5.98145C0.963867 5.98145 1.12158 6.04785 1.25439 6.18066C1.38721 6.30794 1.45361 6.46289 1.45361 6.64551V8.59619H3.22168V9.93262H1.45361V11.875C1.45361 12.0521 1.38721 12.2098 1.25439 12.3481C1.12712 12.481 0.969401 12.5474 0.78125 12.5474ZM10.9082 3.80664V1.78955H8.28516C8.10807 1.78955 7.95312 1.72591 7.82031 1.59863C7.6875 1.46582 7.62109 1.30811 7.62109 1.12549C7.62109 0.942871 7.68473 0.785156 7.81201 0.652344C7.94482 0.519531 8.10254 0.453125 8.28516 0.453125H14.8594C15.042 0.453125 15.1969 0.519531 15.3242 0.652344C15.457 0.779622 15.5234 0.93457 15.5234 1.11719C15.5234 1.2998 15.457 1.45752 15.3242 1.59033C15.1969 1.72314 15.042 1.78955 14.8594 1.78955H12.2529V3.80664H10.9082Z" fill="#BFBFBF"/>
</svg>
