<svg width="16" height="16" viewBox="0 0 16 16" fill="none" xmlns="http://www.w3.org/2000/svg">
<path d="M2.96191 15.6602C2.0931 15.6602 1.4401 15.4443 1.00293 15.0127C0.571289 14.5866 0.355469 13.9447 0.355469 13.0869V2.95166C0.355469 2.09391 0.571289 1.45199 1.00293 1.02588C1.4401 0.594238 2.0931 0.378418 2.96191 0.378418H13.0308C13.8996 0.378418 14.5498 0.594238 14.9814 1.02588C15.4186 1.45199 15.6372 2.09391 15.6372 2.95166V13.0869C15.6372 13.9447 15.4186 14.5866 14.9814 15.0127C14.5498 15.4443 13.8996 15.6602 13.0308 15.6602H2.96191ZM8.01709 3.64062C7.82894 3.64062 7.67399 3.7015 7.55225 3.82324C7.4305 3.94499 7.36963 4.09993 7.36963 4.28809V8.54639L7.43604 10.3643L6.58105 9.33496L5.56836 8.31396C5.44108 8.18669 5.2889 8.12305 5.11182 8.12305C4.93473 8.12305 4.78532 8.18392 4.66357 8.30566C4.54736 8.42188 4.48926 8.56852 4.48926 8.74561C4.48926 8.93376 4.54736 9.08317 4.66357 9.19385L7.51904 12.041C7.67952 12.2015 7.84554 12.2817 8.01709 12.2817C8.18864 12.2817 8.35465 12.2015 8.51514 12.041L11.3706 9.19385C11.4868 9.07764 11.5449 8.92822 11.5449 8.74561C11.5449 8.56852 11.484 8.42188 11.3623 8.30566C11.2406 8.18392 11.0911 8.12305 10.9141 8.12305C10.7259 8.12305 10.5737 8.18669 10.4575 8.31396L9.45312 9.33496L8.58984 10.3726L8.65625 8.54639V4.28809C8.65625 4.09993 8.59538 3.94499 8.47363 3.82324C8.35742 3.7015 8.20524 3.64062 8.01709 3.64062Z" fill="#BFBFBF"/>
</svg>
