<svg width="20" height="16" viewBox="0 0 20 16" fill="none" xmlns="http://www.w3.org/2000/svg">
<path d="M2.74023 14.3237H17.0757C17.4686 14.3237 17.7785 14.2103 18.0054 13.9834C18.2378 13.7565 18.354 13.4438 18.354 13.0454V11.7671L14.5356 8.23096C14.342 8.04834 14.1289 7.91276 13.8965 7.82422C13.6696 7.73568 13.4427 7.69141 13.2158 7.69141C12.7288 7.69141 12.2834 7.86849 11.8794 8.22266L7.91162 11.7422L6.32617 10.3145C5.96094 9.97689 5.5625 9.80811 5.13086 9.80811C4.94824 9.80811 4.76009 9.84961 4.56641 9.93262C4.37272 10.0156 4.18457 10.1374 4.00195 10.2979L1.45361 12.5225V13.0288C1.45361 13.4328 1.56706 13.751 1.79395 13.9834C2.02637 14.2103 2.3418 14.3237 2.74023 14.3237ZM6.34277 8.22266C6.71354 8.22266 7.05387 8.13135 7.36377 7.94873C7.67367 7.76058 7.91992 7.51156 8.10254 7.20166C8.29069 6.89176 8.38477 6.54867 8.38477 6.17236C8.38477 5.79606 8.29069 5.45296 8.10254 5.14307C7.91992 4.83317 7.67367 4.58691 7.36377 4.4043C7.05387 4.21615 6.71354 4.12207 6.34277 4.12207C5.96647 4.12207 5.62337 4.21615 5.31348 4.4043C5.00358 4.58691 4.75456 4.83317 4.56641 5.14307C4.38379 5.45296 4.29248 5.79606 4.29248 6.17236C4.29248 6.54867 4.38379 6.89176 4.56641 7.20166C4.75456 7.51156 5.00358 7.76058 5.31348 7.94873C5.62337 8.13135 5.96647 8.22266 6.34277 8.22266ZM2.72363 15.6519C1.85482 15.6519 1.20182 15.436 0.764648 15.0044C0.333008 14.5783 0.117188 13.9391 0.117188 13.0869V2.94336C0.117188 2.08561 0.333008 1.44368 0.764648 1.01758C1.20182 0.585938 1.85482 0.370117 2.72363 0.370117H17.084C17.9583 0.370117 18.6113 0.585938 19.043 1.01758C19.4746 1.44922 19.6904 2.09115 19.6904 2.94336V13.0869C19.6904 13.9391 19.4746 14.5783 19.043 15.0044C18.6113 15.436 17.9583 15.6519 17.084 15.6519H2.72363Z" fill="#BFBFBF"/>
</svg>
