<svg width="32" height="32" viewBox="0 0 32 32" fill="none" xmlns="http://www.w3.org/2000/svg">
<g clip-path="url(#clip0_6_17210)">
<path d="M0 15.9903C0 16.94 0.795153 17.7152 1.72607 17.7152H14.274V30.2556C14.274 31.1859 15.0497 31.9805 16 31.9805C16.9504 31.9805 17.7456 31.1859 17.7456 30.2556V17.7152H30.274C31.205 17.7152 32 16.94 32 15.9903C32 15.0405 31.205 14.2459 30.274 14.2459H17.7456V1.72501C17.7456 0.794668 16.9504 0 16 0C15.0497 0 14.274 0.794668 14.274 1.72501V14.2459H1.72607C0.795153 14.2459 0 15.0405 0 15.9903Z" fill="#D9D9D9"/>
</g>
<defs>
<clipPath id="clip0_6_17210">
<rect width="32" height="32" fill="white"/>
</clipPath>
</defs>
</svg>
