<svg width="22" height="19" viewBox="0 0 22 19" fill="none" xmlns="http://www.w3.org/2000/svg">
<path d="M3.77148 17.6646C3.45052 17.6646 3.24577 17.5594 3.15723 17.3491C3.07422 17.1444 3.11296 16.9368 3.27344 16.7266C3.37858 16.5882 3.52799 16.4028 3.72168 16.1704C3.9209 15.9435 4.12565 15.6945 4.33594 15.4233C4.54622 15.1522 4.72884 14.8893 4.88379 14.6348C4.91699 14.5739 4.92253 14.5158 4.90039 14.4604C4.88379 14.3996 4.84505 14.3525 4.78418 14.3193C3.89876 13.8434 3.13232 13.2762 2.48486 12.6177C1.84294 11.9536 1.34766 11.2231 0.999023 10.4263C0.655924 9.62939 0.484375 8.78825 0.484375 7.90283C0.484375 6.85693 0.725098 5.87744 1.20654 4.96436C1.69352 4.05127 2.36589 3.25163 3.22363 2.56543C4.08691 1.8737 5.08854 1.33415 6.22852 0.946777C7.36849 0.553874 8.59147 0.357422 9.89746 0.357422C11.2035 0.357422 12.4264 0.553874 13.5664 0.946777C14.7064 1.33415 15.7052 1.8737 16.563 2.56543C17.4263 3.25163 18.0986 4.05127 18.5801 4.96436C19.0671 5.87744 19.3105 6.85693 19.3105 7.90283C19.3105 8.26253 19.2801 8.6167 19.2192 8.96533C19.1639 9.31396 19.0754 9.65706 18.9536 9.99463C18.9315 9.99463 18.9093 9.9974 18.8872 10.0029C18.8651 10.0085 18.8457 10.0112 18.8291 10.0112C18.6797 9.75667 18.4694 9.55192 18.1982 9.39697C17.9326 9.23649 17.6366 9.15625 17.3101 9.15625C16.9172 9.15625 16.563 9.27523 16.2476 9.51318C15.9321 9.74561 15.7191 10.0417 15.6084 10.4014C15.6029 10.4401 15.5946 10.4788 15.5835 10.5176C15.578 10.5563 15.5724 10.5923 15.5669 10.6255C15.5337 10.6144 15.5005 10.6061 15.4673 10.6006C15.4396 10.5895 15.4064 10.584 15.3677 10.584C14.9692 10.584 14.6151 10.7002 14.3052 10.9326C14.0008 11.1595 13.7905 11.4528 13.6743 11.8125C13.6632 11.8457 13.6549 11.8789 13.6494 11.9121C13.6439 11.9453 13.6383 11.9813 13.6328 12.02C13.5996 12.0034 13.5636 11.9924 13.5249 11.9868C13.4862 11.9813 13.4502 11.9785 13.417 11.9785C13.085 11.9785 12.7806 12.0615 12.5039 12.2275C12.2327 12.388 12.0142 12.6066 11.8481 12.8833C11.6877 13.1545 11.6074 13.4561 11.6074 13.7881V15.249C11.2588 15.3099 10.8963 15.3569 10.52 15.3901C10.1437 15.4233 9.75635 15.4399 9.35791 15.4399C9.30811 15.4399 9.25553 15.4372 9.2002 15.4316C9.14486 15.4316 9.08952 15.4289 9.03418 15.4233C8.97884 15.4233 8.92074 15.4344 8.85986 15.4565C8.79899 15.4787 8.73258 15.5146 8.66064 15.5645C8.30648 15.819 7.89974 16.068 7.44043 16.3115C6.98665 16.5605 6.52458 16.7874 6.0542 16.9922C5.58936 17.1969 5.15495 17.3602 4.75098 17.4819C4.34701 17.6037 4.02051 17.6646 3.77148 17.6646ZM13.4087 15.5146C13.2814 15.5146 13.1735 15.4704 13.085 15.3818C12.9964 15.2933 12.9521 15.1854 12.9521 15.0581V13.7964C12.9521 13.6636 12.9964 13.5529 13.085 13.4644C13.1735 13.3703 13.2814 13.3232 13.4087 13.3232C13.547 13.3232 13.6605 13.3703 13.749 13.4644C13.8431 13.5529 13.8901 13.6636 13.8901 13.7964V15.0581C13.8901 15.1854 13.8431 15.2933 13.749 15.3818C13.6605 15.4704 13.547 15.5146 13.4087 15.5146ZM15.3677 16.9092C15.2349 16.9092 15.1214 16.8649 15.0273 16.7764C14.9388 16.6878 14.8945 16.5744 14.8945 16.436V12.4019C14.8945 12.2746 14.9388 12.1667 15.0273 12.0781C15.1214 11.984 15.2349 11.937 15.3677 11.937C15.5005 11.937 15.6112 11.984 15.6997 12.0781C15.7882 12.1667 15.8325 12.2746 15.8325 12.4019V16.436C15.8325 16.5744 15.7882 16.6878 15.6997 16.7764C15.6112 16.8649 15.5005 16.9092 15.3677 16.9092ZM17.3101 18.3452C17.1772 18.3452 17.0666 18.3009 16.978 18.2124C16.8895 18.1239 16.8452 18.0132 16.8452 17.8804V10.9824C16.8452 10.8441 16.8895 10.7306 16.978 10.6421C17.0721 10.548 17.1828 10.501 17.3101 10.501C17.4429 10.501 17.5535 10.548 17.6421 10.6421C17.7362 10.7306 17.7832 10.8441 17.7832 10.9824V17.8804C17.7832 18.0132 17.7362 18.1239 17.6421 18.2124C17.5535 18.3009 17.4429 18.3452 17.3101 18.3452ZM19.2524 17.5234C19.1252 17.5234 19.0145 17.4764 18.9204 17.3823C18.8319 17.2938 18.7876 17.1831 18.7876 17.0503V11.7876C18.7876 11.6603 18.8319 11.5524 18.9204 11.4639C19.0145 11.3753 19.1252 11.3311 19.2524 11.3311C19.3853 11.3311 19.4959 11.3753 19.5845 11.4639C19.6785 11.5524 19.7256 11.6603 19.7256 11.7876V17.0503C19.7256 17.1831 19.6785 17.2938 19.5845 17.3823C19.4959 17.4764 19.3853 17.5234 19.2524 17.5234ZM21.2031 15.9546C21.0758 15.9546 20.9652 15.9076 20.8711 15.8135C20.7826 15.7249 20.7383 15.617 20.7383 15.4897V13.3564C20.7383 13.2292 20.7826 13.1213 20.8711 13.0327C20.9652 12.9386 21.0758 12.8916 21.2031 12.8916C21.3415 12.8916 21.4549 12.9359 21.5435 13.0244C21.632 13.113 21.6763 13.2236 21.6763 13.3564V15.4897C21.6763 15.6226 21.632 15.7332 21.5435 15.8218C21.4549 15.9103 21.3415 15.9546 21.2031 15.9546Z" fill="#BFBFBF"/>
</svg>
