<svg width="16" height="21" viewBox="0 0 16 21" fill="none" xmlns="http://www.w3.org/2000/svg">
<path d="M2.41406 20.1797C1.60677 20.1797 1 19.974 0.59375 19.5625C0.192708 19.1562 -0.0078125 18.5443 -0.0078125 17.7266V6.875C-0.0078125 6.0625 0.192708 5.45052 0.59375 5.03906C1 4.6276 1.60677 4.42188 2.41406 4.42188H5.25V10.0781C5.25 10.5781 5.36979 10.9505 5.60938 11.1953C5.84896 11.4349 6.22135 11.5547 6.72656 11.5547H12.1797V17.7266C12.1797 18.5391 11.9766 19.151 11.5703 19.5625C11.1693 19.974 10.5651 20.1797 9.75781 20.1797H2.41406ZM6.71875 10.4844C6.44792 10.4844 6.3125 10.3516 6.3125 10.0859V4.61719C6.46354 4.65885 6.61458 4.73698 6.76562 4.85156C6.92188 4.96615 7.08594 5.11198 7.25781 5.28906L11.4297 9.53906C11.6068 9.71615 11.7422 9.88021 11.8359 10.0312C11.9297 10.1823 11.9974 10.3333 12.0391 10.4844H6.71875ZM13.2422 16.2812V11.7656C13.2422 11.2344 13.1771 10.737 13.0469 10.2734C12.9219 9.80469 12.6406 9.35156 12.2031 8.91406L7.76562 4.48438C7.32812 4.04688 6.88021 3.75 6.42188 3.59375C5.96354 3.4375 5.46094 3.35938 4.91406 3.35938H3.78125V2.91406C3.78125 2.13281 3.98698 1.53906 4.39844 1.13281C4.8099 0.726562 5.41146 0.523438 6.20312 0.523438H10.3672V5.14062C10.3672 5.54688 10.4766 5.86198 10.6953 6.08594C10.9193 6.30469 11.237 6.41406 11.6484 6.41406H15.9688V13.8281C15.9688 14.2344 15.9167 14.5911 15.8125 14.8984C15.7135 15.2057 15.5625 15.4609 15.3594 15.6641C15.1562 15.8672 14.9036 16.0208 14.6016 16.125C14.2995 16.2292 13.9479 16.2812 13.5469 16.2812H13.2422ZM11.7969 5.4375C11.5052 5.4375 11.3594 5.28646 11.3594 4.98438L11.3516 0.84375C11.4714 0.859375 11.5885 0.908854 11.7031 0.992188C11.8229 1.07552 11.9505 1.1875 12.0859 1.32812L15.3906 4.69531C15.5312 4.83594 15.6406 4.96354 15.7188 5.07812C15.8021 5.19271 15.8542 5.3125 15.875 5.4375H11.7969Z" fill="#BFBFBF"/>
</svg>
